<?xml version="1.0" standalone="no"?>
<!DOCTYPE svg PUBLIC "-//W3C//DTD SVG 20010904//EN"
 "http://www.w3.org/TR/2001/REC-SVG-20010904/DTD/svg10.dtd">
<svg version="1.0" xmlns="http://www.w3.org/2000/svg"
 width="2000.000000pt" height="1500.000000pt" viewBox="0 0 2000.000000 1500.000000"
 preserveAspectRatio="xMidYMid meet">

<g transform="translate(0.000000,1500.000000) scale(0.100000,-0.100000)"
fill="#fff" stroke="none">
<path d="M9694 11647 c-166 -287 -491 -849 -722 -1249 l-420 -728 1448 0 1448
0 -85 148 c-47 81 -136 235 -199 344 -352 611 -605 1049 -674 1168 -43 74
-135 234 -205 355 -248 431 -280 485 -285 485 -3 0 -141 -235 -306 -523z"/>
<path d="M9957 9018 c-67 -89 -116 -233 -117 -340 0 -27 -1 -48 -3 -48 -2 0
-26 20 -52 45 -60 55 -159 108 -241 129 -125 32 -144 17 -119 -90 21 -93 64
-177 129 -255 l55 -67 -64 -1 c-79 -1 -138 -14 -209 -45 -88 -39 -146 -83
-146 -111 0 -28 58 -72 146 -111 71 -31 130 -44 209 -45 l64 -1 -55 -67 c-65
-78 -108 -162 -129 -255 -25 -107 -6 -122 118 -90 83 21 162 63 235 124 l62
52 0 -49 c1 -140 101 -373 160 -373 59 0 159 233 160 373 l0 48 61 -51 c72
-60 153 -103 236 -124 124 -32 143 -17 118 90 -21 93 -64 177 -129 255 l-54
66 65 2 c80 2 136 14 207 45 88 39 146 83 146 111 0 17 -13 33 -45 55 -93 64
-199 99 -309 101 -62 1 -83 10 -53 22 22 8 108 128 134 186 35 79 56 177 43
201 -29 54 -232 -14 -359 -120 l-61 -51 0 48 c-1 140 -101 373 -160 373 -10 0
-30 -15 -43 -32z m78 -159 c49 -111 49 -278 -1 -389 -15 -33 -30 -60 -34 -60
-4 0 -19 26 -33 58 -54 121 -55 273 -1 393 15 33 30 59 34 59 4 0 20 -27 35
-61z m-417 -175 c117 -58 220 -179 257 -301 9 -34 -18 -30 -104 13 -116 58
-219 179 -256 302 -9 32 18 29 103 -14z m867 14 c-38 -125 -138 -243 -257
-302 -84 -43 -112 -46 -103 -13 33 116 142 244 256 301 86 43 114 46 104 14z
m-800 -402 c58 -15 145 -52 145 -61 0 -10 -101 -51 -159 -65 -101 -24 -277 3
-346 54 -18 13 -16 15 23 35 96 49 236 64 337 37z m868 -1 c32 -8 76 -24 99
-36 39 -20 41 -22 23 -35 -69 -51 -245 -78 -346 -54 -58 14 -159 55 -159 65 0
10 90 47 145 61 70 17 170 17 238 -1z m-533 -31 c11 -12 10 -18 -3 -32 -16
-15 -18 -15 -34 0 -13 14 -14 20 -3 32 7 9 16 16 20 16 4 0 13 -7 20 -16z
m-145 -176 c-37 -123 -140 -244 -257 -302 -84 -43 -112 -46 -103 -13 33 117
140 243 256 301 86 43 113 47 104 14z m353 -13 c116 -58 220 -181 257 -302 9
-34 -18 -30 -104 13 -118 59 -218 177 -256 302 -9 32 18 29 103 -13z m-193
-76 c49 -111 49 -278 -1 -389 -15 -33 -30 -60 -34 -60 -4 0 -19 26 -33 58 -54
121 -55 273 -1 393 15 33 30 59 34 59 4 0 20 -27 35 -61z"/>
<path d="M9954 8695 c-19 -28 -11 -60 18 -76 51 -27 105 29 73 77 -21 33 -69
33 -91 -1z"/>
<path d="M9662 8584 c-32 -22 -30 -69 4 -91 24 -15 29 -15 53 -2 29 16 41 69
19 86 -25 20 -54 23 -76 7z"/>
<path d="M10272 8584 c-32 -22 -30 -69 4 -91 24 -15 29 -15 53 -2 29 16 41 69
19 86 -25 20 -54 23 -76 7z"/>
<path d="M9523 8264 c-15 -24 -15 -29 -2 -53 16 -29 61 -40 85 -20 17 14 19
70 2 87 -22 22 -66 14 -85 -14z"/>
<path d="M10396 8277 c-11 -8 -18 -26 -18 -42 0 -57 73 -74 101 -24 29 53 -34
102 -83 66z"/>
<path d="M9662 7974 c-31 -21 -30 -69 2 -90 58 -37 121 51 64 90 -28 20 -38
20 -66 0z"/>
<path d="M10272 7974 c-31 -21 -30 -69 2 -90 58 -37 121 51 64 90 -28 20 -38
20 -66 0z"/>
<path d="M9960 7840 c-24 -24 -25 -38 -4 -68 35 -51 117 -8 95 50 -16 42 -59
50 -91 18z"/>
<path d="M2520 7720 l0 -50 3180 0 3180 0 0 50 0 50 -3180 0 -3180 0 0 -50z"/>
<path d="M11120 7720 l0 -50 3180 0 3180 0 0 50 0 50 -3180 0 -3180 0 0 -50z"/>
<path d="M2520 7510 l0 -50 3180 0 3180 0 0 50 0 50 -3180 0 -3180 0 0 -50z"/>
<path d="M11120 7510 l0 -50 3180 0 3180 0 0 50 0 50 -3180 0 -3180 0 0 -50z"/>
<path d="M12190 7131 c-124 -18 -197 -49 -265 -112 -54 -50 -80 -113 -80 -194
0 -84 26 -144 86 -200 62 -58 111 -80 329 -144 250 -75 306 -114 297 -209 -9
-88 -75 -124 -234 -130 -128 -5 -193 11 -248 59 -32 29 -63 108 -50 130 4 5
-35 9 -99 9 -119 0 -117 2 -104 -88 12 -74 38 -121 98 -175 177 -159 609 -151
770 14 52 54 75 123 74 224 0 95 -20 141 -85 199 -59 54 -138 88 -337 145
-187 54 -253 85 -277 131 -19 37 -19 54 0 90 25 47 86 72 191 78 161 8 252
-33 275 -124 l11 -44 101 0 100 0 -7 56 c-16 137 -95 220 -253 267 -64 19
-219 28 -293 18z"/>
<path d="M14575 7130 c-297 -46 -445 -238 -445 -580 0 -209 50 -352 157 -450
126 -115 331 -163 543 -126 225 40 360 161 417 376 24 90 24 310 0 400 -53
196 -171 316 -360 364 -75 19 -235 27 -312 16z m286 -197 c108 -49 170 -143
191 -292 13 -98 -1 -244 -31 -315 -28 -63 -92 -129 -154 -157 -45 -21 -67 -24
-172 -24 -111 0 -124 2 -177 28 -69 34 -120 90 -150 166 -20 50 -23 74 -22
211 0 124 3 164 17 200 38 96 102 159 197 194 66 24 238 18 301 -11z"/>
<path d="M16930 7134 c-121 -21 -152 -29 -199 -51 -117 -56 -171 -136 -171
-258 0 -119 53 -201 168 -259 27 -14 131 -50 232 -81 101 -31 201 -65 221 -75
132 -68 116 -214 -28 -256 -84 -24 -252 -16 -316 15 -59 29 -97 81 -97 133 l0
38 -106 0 -107 0 5 -64 c6 -75 44 -151 97 -198 90 -79 256 -124 421 -114 275
17 416 120 428 316 6 99 -10 151 -61 207 -74 80 -122 102 -384 178 -171 50
-201 63 -238 102 -18 20 -25 39 -25 69 0 79 85 124 235 124 140 0 228 -47 241
-131 l7 -39 98 0 99 0 0 38 c0 141 -93 243 -265 288 -53 14 -213 26 -255 18z"/>
<path d="M2520 6550 l0 -570 445 0 445 0 0 90 0 90 -345 0 -345 0 0 155 0 155
305 0 305 0 0 90 0 90 -302 2 -303 3 -3 143 -3 142 341 0 340 0 0 90 0 90
-440 0 -440 0 0 -570z"/>
<path d="M3540 7030 l0 -90 185 0 185 0 0 -480 0 -480 105 0 105 0 0 480 0
480 180 0 180 0 0 90 0 90 -470 0 -470 0 0 -90z"/>
<path d="M4640 6550 l0 -570 105 0 105 0 0 245 0 245 273 0 272 0 0 -242 0
-243 103 -3 102 -3 0 571 0 571 -102 -3 -103 -3 -1 -222 c-1 -123 -2 -227 -3
-233 -1 -6 -98 -10 -271 -10 l-270 0 0 235 0 235 -105 0 -105 0 0 -570z"/>
<path d="M5840 6550 l0 -570 450 0 450 0 0 90 0 90 -345 0 -345 0 0 155 0 155
300 0 c193 0 300 4 301 10 0 6 1 39 1 75 0 36 -1 72 -1 80 -1 13 -41 15 -301
15 l-300 0 0 145 0 145 340 0 340 0 0 90 0 90 -445 0 -445 0 0 -570z"/>
<path d="M6950 6550 l0 -570 105 0 105 0 0 220 0 220 181 0 181 0 106 -220
107 -220 113 0 c61 0 112 1 112 3 0 2 -54 109 -121 237 -67 129 -117 236 -111
238 34 11 106 68 132 103 45 63 63 136 58 239 -8 179 -99 280 -278 309 -36 6
-206 11 -377 11 l-313 0 0 -570z m680 371 c54 -28 74 -62 78 -134 5 -82 -21
-138 -78 -167 -36 -18 -58 -20 -255 -20 l-215 0 0 170 0 170 218 0 c192 0 221
-2 252 -19z"/>
<path d="M8150 6550 l0 -570 450 0 450 0 0 90 0 90 -345 0 -345 0 0 155 0 155
302 2 303 3 0 88 1 87 -303 0 -303 0 0 145 0 145 340 0 340 0 0 90 0 90 -445
0 -445 0 0 -570z"/>
<path d="M9427 6687 c-92 -237 -191 -494 -221 -569 l-54 -138 108 0 107 0 45
123 45 122 264 3 264 2 46 -122 46 -123 113 -3 c88 -2 111 0 107 10 -2 7 -100
258 -217 558 -117 300 -214 551 -217 558 -4 9 -41 12 -137 12 l-131 0 -168
-433z m323 183 c12 -39 52 -154 90 -257 39 -103 70 -193 70 -200 0 -10 -39
-13 -190 -13 -135 0 -190 3 -190 11 0 7 31 95 69 198 38 102 79 219 92 259 13
39 26 72 31 72 4 0 17 -32 28 -70z"/>
<path d="M10430 6550 l0 -570 408 0 407 0 0 90 1 90 -303 0 -303 0 0 480 0
480 -105 0 -105 0 0 -570z"/>
<path d="M12970 6550 l0 -570 105 0 105 0 0 245 0 245 270 0 270 0 0 -245 0
-245 105 0 105 0 0 570 0 570 -105 0 -105 0 0 -235 0 -235 -270 0 -270 0 0
235 0 235 -105 0 -105 0 0 -570z"/>
<path d="M15460 6550 l0 -570 450 0 450 0 0 90 0 90 -345 0 -345 0 0 155 0
155 302 2 303 3 0 88 1 87 -303 0 -303 0 0 145 0 145 340 0 340 0 0 90 0 90
-445 0 -445 0 0 -570z"/>
<path d="M6027 5298 c-233 -402 -1411 -2446 -1414 -2455 -4 -11 971 -13 5386
-13 2965 0 5391 3 5391 6 0 4 -37 70 -81 148 -45 77 -190 328 -321 556 -132
228 -275 476 -318 550 -43 74 -169 293 -280 485 -111 193 -256 443 -322 558
l-120 207 -3948 0 -3948 0 -25 -42z"/>
</g>
</svg>
